<svg width="19" height="19" viewBox="0 0 19 19" fill="none" xmlns="http://www.w3.org/2000/svg">
<path d="M9.49998 1.58325C5.13473 1.58325 1.58331 5.13467 1.58331 9.49992C1.58331 13.8652 5.13473 17.4166 9.49998 17.4166C13.8652 17.4166 17.4166 13.8652 17.4166 9.49992C17.4166 5.13467 13.8652 1.58325 9.49998 1.58325ZM9.49998 15.8333C6.00794 15.8333 3.16665 12.992 3.16665 9.49992C3.16665 6.00788 6.00794 3.16659 9.49998 3.16659C12.992 3.16659 15.8333 6.00788 15.8333 9.49992C15.8333 12.992 12.992 15.8333 9.49998 15.8333Z" fill="#B7BEBD"/>
<path d="M7.9159 10.7563L6.09586 8.93939L4.97803 10.0604L7.91749 12.9935L13.2264 7.6846L12.107 6.56519L7.9159 10.7563Z" fill="#B7BEBD"/>
</svg>
