<svg width="20" height="19" viewBox="0 0 20 19" fill="none" xmlns="http://www.w3.org/2000/svg">
<path d="M9.83341 1.58325C5.46816 1.58325 1.91675 5.13467 1.91675 9.49992C1.91675 13.8652 5.46816 17.4166 9.83341 17.4166C14.1987 17.4166 17.7501 13.8652 17.7501 9.49992C17.7501 5.13467 14.1987 1.58325 9.83341 1.58325ZM9.83341 15.8333C6.34137 15.8333 3.50008 12.992 3.50008 9.49992C3.50008 6.00788 6.34137 3.16659 9.83341 3.16659C13.3255 3.16659 16.1667 6.00788 16.1667 9.49992C16.1667 12.992 13.3255 15.8333 9.83341 15.8333Z" fill="#80B3AB"/>
<path d="M8.24928 10.7563L6.42923 8.93939L5.3114 10.0604L8.25086 12.9935L13.5598 7.6846L12.4404 6.56519L8.24928 10.7563Z" fill="#80B3AB"/>
</svg>
